<svg width="238" height="157" viewBox="0 0 238 157" fill="none" xmlns="http://www.w3.org/2000/svg">
<rect width="238" height="157" rx="78.5" fill="#C2B8D1"/>
<ellipse cx="162.5" cy="78.5" rx="60.5" ry="62.5" fill="white"/>
<path d="M43.125 56.4922C43.125 58.3151 42.8906 59.9622 42.4219 61.4336C41.9531 62.8919 41.2956 64.194 40.4492 65.3398C39.6159 66.4727 38.6198 67.4492 37.4609 68.2695C36.3021 69.0898 35.0326 69.7669 33.6523 70.3008C32.2721 70.8216 30.8008 71.2122 29.2383 71.4727C27.6888 71.7201 26.0938 71.8438 24.4531 71.8438C23.8411 71.8438 23.2422 71.8307 22.6562 71.8047C22.0703 71.7656 21.4714 71.7135 20.8594 71.6484L21.4062 45.4375C22.8385 44.9818 24.3099 44.6628 25.8203 44.4805C27.3438 44.2852 28.8542 44.1875 30.3516 44.1875C32.2135 44.1875 33.9258 44.4674 35.4883 45.0273C37.0508 45.5872 38.3984 46.3945 39.5312 47.4492C40.6641 48.5039 41.543 49.793 42.168 51.3164C42.806 52.8398 43.125 54.5651 43.125 56.4922ZM35.1172 57.7422C35.1302 57.0391 35.0521 56.362 34.8828 55.7109C34.7266 55.0599 34.4596 54.487 34.082 53.9922C33.7174 53.4844 33.2487 53.0807 32.6758 52.7812C32.1029 52.4688 31.4193 52.2995 30.625 52.2734L29.8438 64.3828C30.625 64.2656 31.3346 64.0117 31.9727 63.6211C32.6107 63.2174 33.1576 62.7292 33.6133 62.1562C34.082 61.5703 34.4401 60.9258 34.6875 60.2227C34.9479 59.5065 35.0911 58.7708 35.1172 58.0156V57.7422ZM68.457 58.2109C68.457 59.3958 68.3203 60.5417 68.0469 61.6484C67.7734 62.7422 67.3763 63.7708 66.8555 64.7344C66.3477 65.6979 65.7227 66.5833 64.9805 67.3906C64.2513 68.1849 63.4245 68.8685 62.5 69.4414C61.5885 70.0143 60.5924 70.4635 59.5117 70.7891C58.431 71.1016 57.2852 71.2578 56.0742 71.2578C54.9023 71.2578 53.7826 71.1081 52.7148 70.8086C51.6602 70.5091 50.6706 70.0924 49.7461 69.5586C48.8216 69.0117 47.9818 68.3607 47.2266 67.6055C46.4844 66.8372 45.8464 65.9909 45.3125 65.0664C44.7917 64.1289 44.3815 63.1263 44.082 62.0586C43.7956 60.9909 43.6523 59.8776 43.6523 58.7188C43.6523 57.5859 43.7891 56.4792 44.0625 55.3984C44.3359 54.3047 44.7266 53.276 45.2344 52.3125C45.7552 51.349 46.3802 50.4635 47.1094 49.6562C47.8385 48.849 48.6523 48.1523 49.5508 47.5664C50.4622 46.9805 51.4453 46.5247 52.5 46.1992C53.5547 45.8737 54.668 45.7109 55.8398 45.7109C57.7279 45.7109 59.4466 46.0039 60.9961 46.5898C62.5586 47.1758 63.8867 48.0156 64.9805 49.1094C66.0872 50.1901 66.9401 51.5052 67.5391 53.0547C68.151 54.5911 68.457 56.3099 68.457 58.2109ZM59.7852 58.7188C59.7852 58.1589 59.7005 57.6185 59.5312 57.0977C59.375 56.5638 59.1406 56.0951 58.8281 55.6914C58.5156 55.2747 58.125 54.9427 57.6562 54.6953C57.2005 54.4349 56.6732 54.3047 56.0742 54.3047C55.4622 54.3047 54.9154 54.4154 54.4336 54.6367C53.9518 54.8581 53.5352 55.1641 53.1836 55.5547C52.8451 55.9323 52.5846 56.3815 52.4023 56.9023C52.2201 57.4102 52.1289 57.9505 52.1289 58.5234C52.1289 59.0703 52.207 59.6172 52.3633 60.1641C52.5195 60.7109 52.7539 61.2057 53.0664 61.6484C53.3789 62.0911 53.763 62.4492 54.2188 62.7227C54.6875 62.9961 55.2279 63.1328 55.8398 63.1328C56.4518 63.1328 56.9987 63.0156 57.4805 62.7812C57.9753 62.5339 58.3919 62.2083 58.7305 61.8047C59.069 61.388 59.3294 60.9128 59.5117 60.3789C59.694 59.8451 59.7852 59.2917 59.7852 58.7188ZM96.3867 43.9922L94.9805 70.4766L84.7461 71.4141L79.2773 57.2344L78.418 71.6875H69.6289L70.332 43.9922L80.0977 43.5234L86.8555 57.5859L87.168 44.3047L96.3867 43.9922ZM118.633 44.0703L118.438 52.3516L112.617 52.5859L111.133 71.1016L102.891 71.5312L102.93 53.0156L97.1094 53.3281L97.3438 44.1094L118.633 44.0703ZM43.7305 105.047C43.7305 106.128 43.5286 107.059 43.125 107.84C42.7344 108.621 42.207 109.285 41.543 109.832C40.8789 110.379 40.1107 110.828 39.2383 111.18C38.3789 111.518 37.4805 111.785 36.543 111.98C35.6055 112.176 34.6615 112.306 33.7109 112.371C32.7734 112.436 31.8945 112.469 31.0742 112.469C30.2669 112.469 29.4271 112.436 28.5547 112.371C27.6953 112.319 26.8359 112.221 25.9766 112.078C25.1172 111.935 24.2708 111.746 23.4375 111.512C22.6042 111.264 21.8164 110.958 21.0742 110.594L21.0352 85.4375C21.7643 85.138 22.5391 84.8711 23.3594 84.6367C24.1797 84.3893 25.013 84.1875 25.8594 84.0312C26.7188 83.862 27.5716 83.7383 28.418 83.6602C29.2643 83.569 30.0846 83.5234 30.8789 83.5234C31.8034 83.5234 32.7344 83.582 33.6719 83.6992C34.6224 83.8164 35.5339 84.0117 36.4062 84.2852C37.2786 84.5586 38.0924 84.9167 38.8477 85.3594C39.6029 85.7891 40.2604 86.3229 40.8203 86.9609C41.3932 87.599 41.8359 88.3411 42.1484 89.1875C42.474 90.0339 42.6367 91.0104 42.6367 92.1172C42.6367 92.8464 42.5326 93.5299 42.3242 94.168C42.1159 94.806 41.8164 95.3789 41.4258 95.8867C41.0352 96.3945 40.5599 96.8307 40 97.1953C39.4401 97.5469 38.8086 97.8073 38.1055 97.9766C38.9518 98.1979 39.7201 98.5234 40.4102 98.9531C41.1133 99.3828 41.7057 99.9036 42.1875 100.516C42.6823 101.128 43.0599 101.818 43.3203 102.586C43.5938 103.354 43.7305 104.174 43.7305 105.047ZM33.8086 93.9141C33.8086 93.5365 33.7305 93.2174 33.5742 92.957C33.418 92.6836 33.2227 92.4622 32.9883 92.293C32.7669 92.1237 32.5195 92 32.2461 91.9219C31.9857 91.8438 31.7513 91.8047 31.543 91.8047C31.2826 91.8047 31.0286 91.8438 30.7812 91.9219C30.5339 92 30.293 92.0911 30.0586 92.1953L29.9414 96.5312C30.2409 96.5312 30.612 96.5052 31.0547 96.4531C31.4974 96.401 31.9206 96.2904 32.3242 96.1211C32.7409 95.9388 33.0924 95.6784 33.3789 95.3398C33.6654 94.9883 33.8086 94.513 33.8086 93.9141ZM31.0352 100.281C30.6576 100.281 30.293 100.32 29.9414 100.398L29.8633 104.852C30.0586 104.891 30.2474 104.93 30.4297 104.969C30.625 104.995 30.8138 105.008 30.9961 105.008C31.2695 105.008 31.569 104.982 31.8945 104.93C32.2201 104.865 32.526 104.747 32.8125 104.578C33.099 104.396 33.3333 104.155 33.5156 103.855C33.7109 103.556 33.8086 103.159 33.8086 102.664C33.8086 102.169 33.7109 101.766 33.5156 101.453C33.3333 101.141 33.1055 100.9 32.832 100.73C32.5586 100.548 32.2591 100.431 31.9336 100.379C31.6081 100.314 31.3086 100.281 31.0352 100.281ZM63.2812 83.8359C63.2031 85.0599 63.1315 86.2708 63.0664 87.4688C63.0013 88.6667 62.9167 89.8776 62.8125 91.1016L54.5312 91.5312L54.3359 93.9922H60.1562L59.7266 100.047L53.8672 100.242L53.6719 103.094H58.5156H61.9531C61.875 104.526 61.7904 105.952 61.6992 107.371C61.6211 108.777 61.5495 110.19 61.4844 111.609L44.6484 112L45.2734 83.8359H63.2812ZM96.4062 110.32L86.7188 111.57L85.5469 107.156H81.0938L80.1172 111.57L70.1562 110.594L77.9297 84.5781L88.7891 84.0312L96.4062 110.32ZM84.8438 101.18L83.3594 94.3828L81.9141 101.18H84.8438ZM127.363 105.047C127.363 106.128 127.161 107.059 126.758 107.84C126.367 108.621 125.84 109.285 125.176 109.832C124.512 110.379 123.743 110.828 122.871 111.18C122.012 111.518 121.113 111.785 120.176 111.98C119.238 112.176 118.294 112.306 117.344 112.371C116.406 112.436 115.527 112.469 114.707 112.469C113.9 112.469 113.06 112.436 112.188 112.371C111.328 112.319 110.469 112.221 109.609 112.078C108.75 111.935 107.904 111.746 107.07 111.512C106.237 111.264 105.449 110.958 104.707 110.594L104.668 85.4375C105.397 85.138 106.172 84.8711 106.992 84.6367C107.812 84.3893 108.646 84.1875 109.492 84.0312C110.352 83.862 111.204 83.7383 112.051 83.6602C112.897 83.569 113.717 83.5234 114.512 83.5234C115.436 83.5234 116.367 83.582 117.305 83.6992C118.255 83.8164 119.167 84.0117 120.039 84.2852C120.911 84.5586 121.725 84.9167 122.48 85.3594C123.236 85.7891 123.893 86.3229 124.453 86.9609C125.026 87.599 125.469 88.3411 125.781 89.1875C126.107 90.0339 126.27 91.0104 126.27 92.1172C126.27 92.8464 126.165 93.5299 125.957 94.168C125.749 94.806 125.449 95.3789 125.059 95.8867C124.668 96.3945 124.193 96.8307 123.633 97.1953C123.073 97.5469 122.441 97.8073 121.738 97.9766C122.585 98.1979 123.353 98.5234 124.043 98.9531C124.746 99.3828 125.339 99.9036 125.82 100.516C126.315 101.128 126.693 101.818 126.953 102.586C127.227 103.354 127.363 104.174 127.363 105.047ZM117.441 93.9141C117.441 93.5365 117.363 93.2174 117.207 92.957C117.051 92.6836 116.855 92.4622 116.621 92.293C116.4 92.1237 116.152 92 115.879 91.9219C115.618 91.8438 115.384 91.8047 115.176 91.8047C114.915 91.8047 114.661 91.8438 114.414 91.9219C114.167 92 113.926 92.0911 113.691 92.1953L113.574 96.5312C113.874 96.5312 114.245 96.5052 114.688 96.4531C115.13 96.401 115.553 96.2904 115.957 96.1211C116.374 95.9388 116.725 95.6784 117.012 95.3398C117.298 94.9883 117.441 94.513 117.441 93.9141ZM114.668 100.281C114.29 100.281 113.926 100.32 113.574 100.398L113.496 104.852C113.691 104.891 113.88 104.93 114.062 104.969C114.258 104.995 114.447 105.008 114.629 105.008C114.902 105.008 115.202 104.982 115.527 104.93C115.853 104.865 116.159 104.747 116.445 104.578C116.732 104.396 116.966 104.155 117.148 103.855C117.344 103.556 117.441 103.159 117.441 102.664C117.441 102.169 117.344 101.766 117.148 101.453C116.966 101.141 116.738 100.9 116.465 100.73C116.191 100.548 115.892 100.431 115.566 100.379C115.241 100.314 114.941 100.281 114.668 100.281ZM152.168 98.2109C152.168 99.3958 152.031 100.542 151.758 101.648C151.484 102.742 151.087 103.771 150.566 104.734C150.059 105.698 149.434 106.583 148.691 107.391C147.962 108.185 147.135 108.868 146.211 109.441C145.299 110.014 144.303 110.464 143.223 110.789C142.142 111.102 140.996 111.258 139.785 111.258C138.613 111.258 137.493 111.108 136.426 110.809C135.371 110.509 134.382 110.092 133.457 109.559C132.533 109.012 131.693 108.361 130.938 107.605C130.195 106.837 129.557 105.991 129.023 105.066C128.503 104.129 128.092 103.126 127.793 102.059C127.507 100.991 127.363 99.8776 127.363 98.7188C127.363 97.5859 127.5 96.4792 127.773 95.3984C128.047 94.3047 128.438 93.276 128.945 92.3125C129.466 91.349 130.091 90.4635 130.82 89.6562C131.549 88.849 132.363 88.1523 133.262 87.5664C134.173 86.9805 135.156 86.5247 136.211 86.1992C137.266 85.8737 138.379 85.7109 139.551 85.7109C141.439 85.7109 143.158 86.0039 144.707 86.5898C146.27 87.1758 147.598 88.0156 148.691 89.1094C149.798 90.1901 150.651 91.5052 151.25 93.0547C151.862 94.5911 152.168 96.3099 152.168 98.2109ZM143.496 98.7188C143.496 98.1589 143.411 97.6185 143.242 97.0977C143.086 96.5638 142.852 96.0951 142.539 95.6914C142.227 95.2747 141.836 94.9427 141.367 94.6953C140.911 94.4349 140.384 94.3047 139.785 94.3047C139.173 94.3047 138.626 94.4154 138.145 94.6367C137.663 94.8581 137.246 95.1641 136.895 95.5547C136.556 95.9323 136.296 96.3815 136.113 96.9023C135.931 97.4102 135.84 97.9505 135.84 98.5234C135.84 99.0703 135.918 99.6172 136.074 100.164C136.23 100.711 136.465 101.206 136.777 101.648C137.09 102.091 137.474 102.449 137.93 102.723C138.398 102.996 138.939 103.133 139.551 103.133C140.163 103.133 140.71 103.016 141.191 102.781C141.686 102.534 142.103 102.208 142.441 101.805C142.78 101.388 143.04 100.913 143.223 100.379C143.405 99.8451 143.496 99.2917 143.496 98.7188ZM173.906 84.0703L173.711 92.3516L167.891 92.5859L166.406 111.102L158.164 111.531L158.203 93.0156L152.383 93.3281L152.617 84.1094L173.906 84.0703Z" fill="#030303"/>
<path d="M37.5 124.5L5.5 135.5L20.5 153.5L37.5 124.5Z" fill="#C3B8D0"/>
</svg>
